<svg width="257" height="40" viewBox="0 0 257 40" fill="none" xmlns="http://www.w3.org/2000/svg">
<g clip-path="url(#clip0_202_544)">
<path d="M3.18022 30.0012C2.92987 29.5674 2.76742 29.0886 2.70212 28.592C2.63683 28.0955 2.66998 27.591 2.79968 27.1072C2.92937 26.6235 3.15308 26.17 3.45802 25.7727C3.76297 25.3755 4.14317 25.0421 4.57694 24.7918C5.45296 24.2862 6.49395 24.1493 7.4709 24.4112C8.44785 24.6732 9.28074 25.3125 9.78633 26.1885C8.70195 24.3065 8.13133 22.1725 8.13165 20.0005C8.13198 17.8284 8.70324 15.6946 9.78818 13.8129C10.8731 11.9313 12.4336 10.3678 14.3133 9.27935C16.1929 8.19087 18.3256 7.61559 20.4977 7.61118C21.4838 7.57645 22.4179 7.1603 23.1032 6.45041C23.7886 5.74052 24.1716 4.79232 24.1716 3.80559C24.1716 2.81887 23.7886 1.87067 23.1032 1.16077C22.4179 0.450881 21.4838 0.034729 20.4977 0C16.9873 0.00113467 13.539 0.926074 10.4993 2.68189C7.45964 4.43771 4.93554 6.96257 3.18064 10.0028C1.42574 13.043 0.501845 16.4916 0.50177 20.0019C0.501695 23.5123 1.42545 26.9609 3.18022 30.0012Z" fill="#EF7733"/>
<path d="M34.6394 5.85585C32.7864 3.99331 30.5824 2.51674 28.155 1.51159C25.7276 0.506444 23.1249 -0.00732984 20.4976 1.06465e-06C21.4837 0.0347301 22.4179 0.450882 23.1032 1.16077C23.7885 1.87067 24.1715 2.81887 24.1715 3.80559C24.1715 4.79232 23.7885 5.74052 23.1032 6.45041C22.4179 7.1603 21.4837 7.57646 20.4976 7.61118C22.6713 7.61229 24.8064 8.18516 26.6886 9.27229C28.5709 10.3594 30.1341 11.9226 31.2212 13.8048C32.3084 15.687 32.8813 17.8221 32.8825 19.9958C32.8836 22.1694 32.313 24.3051 31.2278 26.1885C30.9775 26.6223 30.815 27.1011 30.7497 27.5976C30.6844 28.0942 30.7176 28.5987 30.8473 29.0825C30.977 29.5662 31.2007 30.0197 31.5056 30.4169C31.8106 30.8142 32.1908 31.1476 32.6246 31.3979C33.0583 31.6482 33.5371 31.8107 34.0337 31.876C34.5302 31.9413 35.0348 31.9081 35.5185 31.7784C36.0023 31.6487 36.4557 31.425 36.853 31.1201C37.2503 30.8151 37.5836 30.4349 37.8339 30.0012C40.0346 26.1875 40.9158 21.7543 40.3408 17.3889C39.7658 13.0234 37.7667 8.96963 34.6536 5.85585H34.6394Z" fill="#36AF84"/>
<path d="M34.5215 31.9028C33.8522 31.904 33.1945 31.7287 32.6146 31.3948C32.0346 31.0608 31.5529 30.5799 31.218 30.0005C30.8831 29.4211 30.7068 28.7637 30.7069 28.0945C30.707 27.4252 30.8834 26.7678 31.2184 26.1885C30.1317 28.073 28.5679 29.6381 26.6842 30.7262C24.8006 31.8144 22.6636 32.3873 20.4882 32.3873C18.3128 32.3873 16.1758 31.8144 14.2922 30.7262C12.4085 29.6381 10.8447 28.073 9.758 26.1885C9.50766 25.7547 9.17433 25.3745 8.77705 25.0696C8.37976 24.7646 7.92631 24.5409 7.44257 24.4112C6.95884 24.2815 6.45429 24.2484 5.95774 24.3137C5.4612 24.379 4.98237 24.5414 4.54861 24.7918C4.11484 25.0421 3.73464 25.3755 3.42969 25.7727C3.12475 26.17 2.90104 26.6235 2.77135 27.1072C2.50941 28.0842 2.6463 29.1252 3.15189 30.0012C4.90783 33.0406 7.43271 35.5645 10.4729 37.3192C13.5131 39.0739 16.9615 39.9976 20.4717 39.9976C23.9819 39.9976 27.4303 39.0739 30.4705 37.3192C33.5107 35.5645 36.0356 33.0406 37.7915 30.0012C37.4597 30.5759 36.9833 31.0538 36.4097 31.3874C35.836 31.721 35.1851 31.8987 34.5215 31.9028Z" fill="#213360"/>
<path d="M64.4283 13.5567C63.3196 13.0145 62.0953 12.7513 60.8618 12.79C59.6283 12.8286 58.4229 13.168 57.3503 13.7785C56.2203 14.429 55.2888 15.3752 54.656 16.5153C54.0081 17.6799 53.6681 18.9905 53.6681 20.3232C53.6681 21.6559 54.0081 22.9666 54.656 24.1312C55.2965 25.2714 56.2321 26.2184 57.3645 26.8727C58.5098 27.5403 59.8137 27.8875 61.1394 27.8778C62.2446 27.8683 63.3357 27.6288 64.3434 27.1747C65.4009 26.7103 66.3613 26.0508 67.1746 25.2306L69.6943 28.0335C68.5257 29.2276 67.1405 30.1884 65.6127 30.8647C64.1311 31.5411 62.5227 31.895 60.894 31.9028C58.8272 31.9243 56.7918 31.3967 54.9957 30.374C53.2452 29.3888 51.7915 27.9514 50.7867 26.2121C49.7634 24.4454 49.2353 22.4355 49.2578 20.394C49.2353 18.3541 49.7758 16.3475 50.8197 14.5948C51.8426 12.8699 53.3091 11.4507 55.0665 10.4848C56.6944 9.58918 58.5034 9.07227 60.3587 8.9726C62.2141 8.87293 64.0681 9.19306 65.7826 9.90917C67.2588 10.5106 68.594 11.412 69.7038 12.5563L67.217 15.6801C66.4469 14.7842 65.4967 14.0607 64.4283 13.5567Z" fill="#213360"/>
<path d="M73.4551 9.25327H77.7255V27.7126H87.3515V31.5678H73.4551V9.25327Z" fill="#213360"/>
<path d="M107.316 10.466C109.101 11.4283 110.59 12.8599 111.621 14.6062C112.652 16.3525 113.187 18.3472 113.167 20.3751C113.189 22.4209 112.649 24.4333 111.605 26.1932C110.573 27.9387 109.092 29.3758 107.316 30.3551C105.461 31.3591 103.385 31.8848 101.276 31.8848C99.1671 31.8848 97.0912 31.3591 95.2364 30.3551C93.4604 29.376 91.9793 27.9388 90.9471 26.1932C89.9036 24.4334 89.3634 22.4209 89.3852 20.3751C89.3658 18.3472 89.9005 16.3525 90.9316 14.6062C91.9628 12.8599 93.4512 11.4283 95.2364 10.466C97.0977 9.48253 99.171 8.96847 101.276 8.96847C103.381 8.96847 105.455 9.48253 107.316 10.466ZM97.5438 13.7973C95.7945 14.8163 94.5215 16.4882 94.0048 18.4456C93.488 20.4029 93.7698 22.4854 94.7881 24.235C95.4578 25.3839 96.4137 26.3398 97.5626 27.0096C98.7053 27.6851 100.01 28.0374 101.338 28.0288C102.65 28.036 103.939 27.6835 105.065 27.0096C106.203 26.341 107.144 25.3838 107.793 24.235C108.464 23.0618 108.811 21.7313 108.798 20.3799C108.816 19.0248 108.468 17.6899 107.793 16.5153C107.142 15.3762 106.201 14.4302 105.065 13.7737C103.936 13.1089 102.648 12.7617 101.338 12.7687C100.004 12.7683 98.6945 13.1234 97.5438 13.7973Z" fill="#213360"/>
<path d="M122.671 26.533C123.203 27.0418 123.834 27.4369 124.524 27.694C125.215 27.9512 125.95 28.0651 126.686 28.0288C127.415 28.0682 128.144 27.9555 128.828 27.698C129.511 27.4405 130.133 27.0438 130.655 26.533C131.62 25.5358 132.103 24.1548 132.103 22.39V9.25327H136.397V22.39C136.439 24.1474 136.033 25.8866 135.217 27.4437C134.454 28.8579 133.281 30.009 131.853 30.7467C130.257 31.5441 128.489 31.9378 126.705 31.8934C124.908 31.9339 123.127 31.5406 121.515 30.7467C120.074 30.0161 118.891 28.8639 118.122 27.4437C117.306 25.8867 116.9 24.1474 116.942 22.39V9.25327H121.213V22.39C121.184 24.1516 121.67 25.5326 122.671 26.533Z" fill="#213360"/>
<path d="M156.871 10.6736C158.594 11.579 160.03 12.9488 161.014 14.6278C162.028 16.3801 162.546 18.3747 162.515 20.3987C162.548 22.4188 162.024 24.4089 161 26.1508C159.996 27.8348 158.546 29.2082 156.81 30.1191C154.931 31.0909 152.838 31.5776 150.723 31.5347H141.588V9.25327H150.865C152.954 9.21672 155.019 9.70507 156.871 10.6736ZM154.654 26.868C155.736 26.2532 156.626 25.3477 157.221 24.2539C157.857 23.0865 158.182 21.7752 158.164 20.4459C158.189 19.1054 157.863 17.7816 157.221 16.6049C156.609 15.494 155.699 14.5769 154.592 13.9578C153.447 13.3221 152.155 12.9968 150.846 13.014H145.872V27.807H150.973C152.261 27.8256 153.532 27.5016 154.654 26.868Z" fill="#213360"/>
<path d="M176.864 13.3679C175.837 13.0142 174.761 12.8201 173.675 12.7923C172.829 12.7495 171.989 12.9493 171.254 13.3679C170.978 13.531 170.751 13.7649 170.596 14.0453C170.44 14.3257 170.363 14.6425 170.371 14.9628C170.364 15.2508 170.416 15.5373 170.524 15.8043C170.632 16.0714 170.794 16.3134 170.999 16.5153C171.449 16.9529 171.979 17.299 172.561 17.5345C173.4 17.8708 174.257 18.1606 175.128 18.4027C176.404 18.7607 177.653 19.2085 178.865 19.7428C179.827 20.1909 180.667 20.8642 181.314 21.7058C182.034 22.7057 182.393 23.92 182.333 25.1504C182.36 26.4268 181.971 27.6772 181.224 28.713C180.452 29.7532 179.402 30.5546 178.195 31.0251C176.79 31.5789 175.289 31.8499 173.778 31.8226C172.032 31.8223 170.302 31.4925 168.678 30.8505C167.091 30.2448 165.623 29.3647 164.341 28.2506L166.125 24.6172C167.231 25.6475 168.509 26.4778 169.9 27.0709C171.134 27.6282 172.467 27.9315 173.821 27.9627C174.802 28.0163 175.777 27.7783 176.624 27.2785C176.901 27.0973 177.134 26.8574 177.308 26.5758C177.482 26.2942 177.591 25.9778 177.629 25.6491C177.667 25.3204 177.632 24.9874 177.527 24.6737C177.422 24.36 177.249 24.0733 177.02 23.8339C176.569 23.3952 176.032 23.0532 175.444 22.8288C174.815 22.574 173.944 22.2878 172.83 21.97C171.57 21.6131 170.335 21.1765 169.13 20.663C168.166 20.2313 167.324 19.5684 166.677 18.733C165.959 17.752 165.599 16.5545 165.658 15.3403C165.633 14.1277 165.997 12.9389 166.696 11.9476C167.442 10.938 168.457 10.1595 169.626 9.70155C171.019 9.14612 172.51 8.87499 174.01 8.9041C175.461 8.9054 176.905 9.12003 178.294 9.54111C179.629 9.93104 180.9 10.5111 182.069 11.2634L180.347 14.9912C179.255 14.3134 178.086 13.7685 176.864 13.3679Z" fill="#213360"/>
<path d="M191.761 26.533C192.294 27.0418 192.925 27.4369 193.615 27.694C194.305 27.9512 195.041 28.0651 195.777 28.0288C196.506 28.0682 197.235 27.9555 197.918 27.698C198.601 27.4405 199.223 27.0438 199.745 26.533C200.711 25.5358 201.194 24.1548 201.194 22.39V9.25327H205.464V22.39C205.506 24.1474 205.1 25.8866 204.284 27.4437C203.521 28.8579 202.348 30.009 200.92 30.7467C199.324 31.5441 197.556 31.9378 195.772 31.8934C193.975 31.9339 192.194 31.5406 190.581 30.7467C189.141 30.0161 187.958 28.8639 187.189 27.4437C186.373 25.8867 185.967 24.1474 186.009 22.39V9.25327H190.279V22.39C190.267 24.1516 190.761 25.5326 191.761 26.533Z" fill="#213360"/>
<path d="M210.692 9.25327H214.963V31.5678H210.692V9.25327Z" fill="#213360"/>
<path d="M218.337 9.25327H236.536V13.0282H229.591V31.5678H225.287V13.0471H218.337V9.25327Z" fill="#213360"/>
<path d="M239.924 9.25327H256.251V12.981H244.171V18.4971H255.024V22.2248H244.171V27.84H256.633V31.5678H239.924V9.25327Z" fill="#213360"/>
</g>
<defs>
<clipPath id="clip0_202_544">
<rect width="256.157" height="40" fill="white" transform="translate(0.5)"/>
</clipPath>
</defs>
</svg>
